<svg xmlns="http://www.w3.org/2000/svg">
      <symbol id="icon-phone" viewBox="0 0 28 26">
        <path fill-rule="evenodd" clip-rule="evenodd" d="M13.9999 1.79688C9.77412 1.79688 5.53821 2.51113 4.00125 3.93476C2.72606 5.11583 2.30098 7.20233 2.15769 8.52341C2.15769 8.52341 2.13794 8.65396 2.13794 8.71011C2.13794 9.22816 2.58266 9.64365 3.12639 9.64365C3.19063 9.64365 5.56797 9.46157 7.00125 9.34956C7.03574 9.34484 7.0705 9.34021 7.10499 9.33091C7.63881 9.31699 8.0689 8.90612 8.0689 8.39738L8.07369 6.55816C8.07369 5.98869 8.56318 5.53117 9.1662 5.53117H18.8335C19.4366 5.53117 19.9261 5.98863 19.9261 6.55816L19.931 8.39738C19.931 8.90612 20.361 9.31699 20.8948 9.33091C20.9291 9.34026 20.9638 9.34484 20.9987 9.34956C22.4321 9.46151 24.8094 9.64365 24.8734 9.64365C25.4169 9.64365 25.8619 9.22816 25.8619 8.71011C25.8619 8.65396 25.8422 8.52341 25.8422 8.52341C25.6988 7.20233 25.2742 5.11588 23.999 3.93476C22.4615 2.51113 18.2256 1.79688 13.9999 1.79688ZM13.9999 13.9335C12.9076 13.9335 12.0229 14.769 12.0229 15.8006C12.0229 16.8322 12.9076 17.6677 13.9999 17.6677C15.0922 17.6677 15.9768 16.8322 15.9768 15.8006C15.9768 14.769 15.0922 13.9335 13.9999 13.9335ZM12.5171 9.73228V8.56533C12.5171 7.92121 11.9635 7.39839 11.2815 7.39839C10.5996 7.39839 10.046 7.92126 10.046 8.56533V9.73228L3.37826 16.4588C2.9188 16.8837 2.63205 17.4763 2.63205 18.13V20.0018C2.63205 21.0334 3.51682 21.8689 4.60906 21.8689H5.10334V23.036C5.10334 23.6801 5.65702 24.2028 6.33898 24.2028C7.02094 24.2028 7.57457 23.6801 7.57457 23.036V21.8689H20.4252V23.036C20.4252 23.6801 20.9786 24.2028 21.6609 24.2028C22.3428 24.2028 22.8963 23.6801 22.8963 23.036V21.8689H23.3906C24.4829 21.8689 25.3676 21.0334 25.3676 20.0018V18.13C25.3676 17.4762 25.0809 16.8836 24.6214 16.4588L17.9539 9.73228V8.56533C17.9539 7.92121 17.4002 7.39839 16.7182 7.39839C16.0363 7.39839 15.4827 7.92126 15.4827 8.56533V9.73228H12.5171ZM13.9999 12.0663C16.1845 12.0663 17.9539 13.7374 17.9539 15.8006C17.9539 17.8638 16.1845 19.5351 13.9999 19.5351C11.8153 19.5351 10.0459 17.8639 10.0459 15.8006C10.0459 13.7374 11.8153 12.0663 13.9999 12.0663Z"/>
      </symbol>
      <symbol id="icon-mail" viewBox="0 0 37 26">
        <path fill-rule="evenodd" clip-rule="evenodd" d="M32.2786 20.9327L23.6178 13L32.2786 5.06731L31.0976 3.80529L18.5 15.3438L5.9024 3.80529L4.72137 5.06731L13.3822 13L4.72137 20.9327L5.9024 22.1947L14.6617 14.1719L18.5 17.6875L22.3383 14.1719L31.0976 22.1947L32.2786 20.9327ZM3.15193 0.5C1.5339 0.5 0.222229 1.89768 0.222229 3.61572V22.3843C0.222229 24.105 1.52326 25.5 3.15193 25.5H33.8481C35.4661 25.5 36.7778 24.1023 36.7778 22.3843V3.61572C36.7778 1.89496 35.4768 0.5 33.8481 0.5H3.15193Z"/>
      </symbol>
      <symbol id="icon-plane" viewBox="0 0 15 16">
        <g clip-path="url(#clip0_86_5101)">
        <path d="M11.5954 0.801848C11.1024 0.93453 10.6072 1.06784 10.4197 1.41701L8.96432 4.48876L1.30834 6.54938L0.988319 7.52886L6.82389 8.04362L5.80369 10.6995L3.58188 11.2975L3.01422 12.3437L4.61054 12.5087L4.78348 13.3555C4.86183 13.6554 5.14624 13.8524 5.39156 13.7864L6.13216 13.5871L6.97101 15.148L7.53867 14.1019L7.01984 11.5615L8.64813 9.33652L11.6454 15.0819L12.2709 14.319L10.4836 5.56782L12.2444 2.71256C12.4343 2.36276 12.3191 1.79911 12.2035 1.23282C12.1462 0.952315 11.8407 0.735819 11.5954 0.801848Z" fill="#1D2E5B"/>
        </g>
        <defs>
        <clipPath id="clip0_86_5101">
        <rect width="14" height="16" fill="white" transform="translate(0.249969)"/>
        </clipPath>
        </defs>
      </symbol>
      <symbol id="icon-bus" viewBox="0 0 14 16">
        <path d="M3.50147 10.8571C3.50147 10.5417 3.39572 10.2723 3.18422 10.0491C2.97272 9.82589 2.71751 9.71429 2.41859 9.71429C2.11967 9.71429 1.86446 9.82589 1.65296 10.0491C1.44146 10.2723 1.33571 10.5417 1.33571 10.8571C1.33571 11.1726 1.44146 11.442 1.65296 11.6652C1.86446 11.8884 2.11967 12 2.41859 12C2.71751 12 2.97272 11.8884 3.18422 11.6652C3.39572 11.442 3.50147 11.1726 3.50147 10.8571ZM12.1645 10.8571C12.1645 10.5417 12.0588 10.2723 11.8473 10.0491C11.6358 9.82589 11.3806 9.71429 11.0816 9.71429C10.7827 9.71429 10.5275 9.82589 10.316 10.0491C10.1045 10.2723 9.99876 10.5417 9.99876 10.8571C9.99876 11.1726 10.1045 11.442 10.316 11.6652C10.5275 11.8884 10.7827 12 11.0816 12C11.3806 12 11.6358 11.8884 11.8473 11.6652C12.0588 11.442 12.1645 11.1726 12.1645 10.8571ZM11.7754 7.32143L11.1662 3.89286C11.138 3.75595 11.0746 3.64435 10.9759 3.55804C10.8772 3.47173 10.763 3.42857 10.6333 3.42857H2.86697C2.73725 3.42857 2.62304 3.47173 2.52434 3.55804C2.42564 3.64435 2.36219 3.75595 2.33399 3.89286L1.72487 7.32143C1.69667 7.5 1.73615 7.65774 1.84331 7.79464C1.95047 7.93155 2.08865 8 2.25785 8H11.2424C11.4116 8 11.5498 7.93155 11.6569 7.79464C11.7641 7.65774 11.8036 7.5 11.7754 7.32143ZM9.8634 1.85714C9.8634 1.7381 9.82392 1.6369 9.74496 1.55357C9.666 1.47024 9.57012 1.42857 9.45732 1.42857H4.04291C3.93011 1.42857 3.83423 1.47024 3.75527 1.55357C3.67631 1.6369 3.63683 1.7381 3.63683 1.85714C3.63683 1.97619 3.67631 2.07738 3.75527 2.16071C3.83423 2.24405 3.93011 2.28571 4.04291 2.28571H9.45732C9.57012 2.28571 9.666 2.24405 9.74496 2.16071C9.82392 2.07738 9.8634 1.97619 9.8634 1.85714ZM13.2474 8.33036V13.7143H12.1645V14.8571C12.1645 15.1726 12.0588 15.442 11.8473 15.6652C11.6358 15.8884 11.3806 16 11.0816 16C10.7827 16 10.5275 15.8884 10.316 15.6652C10.1045 15.442 9.99876 15.1726 9.99876 14.8571V13.7143H3.50147V14.8571C3.50147 15.1726 3.39572 15.442 3.18422 15.6652C2.97272 15.8884 2.71751 16 2.41859 16C2.11967 16 1.86446 15.8884 1.65296 15.6652C1.44146 15.442 1.33571 15.1726 1.33571 14.8571V13.7143H0.252823V8.33036C0.252823 7.66369 0.323323 7 0.464323 6.33929L1.33571 2.28571C1.38647 1.82143 1.66142 1.41369 2.16056 1.0625C2.6597 0.71131 3.3083 0.446429 4.10636 0.267857C4.90442 0.0892857 5.78568 0 6.75012 0C7.71456 0 8.59581 0.0892857 9.39387 0.267857C10.1919 0.446429 10.8405 0.71131 11.3397 1.0625C11.8388 1.41369 12.1138 1.82143 12.1645 2.28571L13.0528 6.33929C13.1826 6.94643 13.2474 7.61012 13.2474 8.33036Z" fill="#1D2E5B"/>
      </symbol>
      <symbol id="icon-bike" viewBox="0 0 15 17">
        <path d="M10.958 13.9656C10.4441 13.9656 9.94179 13.8131 9.51451 13.5274C9.08722 13.2418 8.75419 12.8357 8.55753 12.3606C8.36087 11.8855 8.30941 11.3627 8.40967 10.8584C8.50992 10.354 8.75739 9.89076 9.12077 9.52715C9.48415 9.16353 9.94712 8.91591 10.4511 8.81558C10.9552 8.71526 11.4776 8.76675 11.9524 8.96354C12.4271 9.16033 12.8329 9.49358 13.1185 9.92114C13.404 10.3487 13.5563 10.8514 13.5563 11.3656C13.5556 12.055 13.2816 12.7158 12.7945 13.2033C12.3074 13.6907 11.6469 13.9649 10.958 13.9656V13.9656ZM10.958 9.66997C10.6229 9.66997 10.2953 9.76942 10.0166 9.95574C9.73794 10.1421 9.52075 10.4069 9.39249 10.7167C9.26423 11.0266 9.23068 11.3675 9.29606 11.6964C9.36144 12.0254 9.52283 12.3275 9.75982 12.5646C9.99681 12.8018 10.2987 12.9633 10.6275 13.0287C10.9562 13.0941 11.2969 13.0605 11.6065 12.9322C11.9162 12.8039 12.1808 12.5865 12.367 12.3077C12.5532 12.0288 12.6526 11.701 12.6526 11.3656C12.6521 10.9161 12.4734 10.4851 12.1557 10.1672C11.838 9.84931 11.4073 9.6705 10.958 9.66997V9.66997Z" fill="#1D2E5B"/>
        <path d="M3.50206 13.9656C2.98816 13.9656 2.48581 13.8131 2.05852 13.5274C1.63123 13.2418 1.2982 12.8357 1.10154 12.3606C0.904881 11.8855 0.853426 11.3627 0.953682 10.8584C1.05394 10.354 1.3014 9.89076 1.66478 9.52715C2.02816 9.16353 2.49113 8.91591 2.99516 8.81558C3.49918 8.71526 4.02161 8.76675 4.49639 8.96354C4.97116 9.16033 5.37696 9.49358 5.66247 9.92114C5.94798 10.3487 6.10036 10.8514 6.10036 11.3656C6.09962 12.055 5.82563 12.7158 5.33851 13.2033C4.8514 13.6907 4.19094 13.9649 3.50206 13.9656V13.9656ZM3.50206 9.66997C3.16691 9.66997 2.83929 9.76942 2.56062 9.95574C2.28195 10.1421 2.06476 10.4069 1.9365 10.7167C1.80825 11.0266 1.77469 11.3675 1.84007 11.6964C1.90546 12.0254 2.06685 12.3275 2.30383 12.5646C2.54082 12.8018 2.84276 12.9633 3.17147 13.0287C3.50018 13.0941 3.8409 13.0605 4.15053 12.9322C4.46017 12.8039 4.72482 12.5865 4.91102 12.3077C5.09722 12.0288 5.19661 11.701 5.19661 11.3656C5.19608 10.9161 5.01738 10.4851 4.69971 10.1672C4.38203 9.84931 3.95132 9.6705 3.50206 9.66997V9.66997Z" fill="#1D2E5B"/>
        <path d="M9.03759 4.25003C9.15663 4.25052 9.27457 4.22326 9.38459 4.16983C9.49461 4.11639 9.59453 4.03785 9.67857 3.93874C9.76261 3.83963 9.82911 3.72192 9.87421 3.59241C9.91932 3.46289 9.94214 3.32416 9.94135 3.18421C9.94267 3.04497 9.92036 2.90681 9.87573 2.77783C9.8311 2.64884 9.76504 2.53161 9.68141 2.43299C9.59779 2.33437 9.49828 2.25634 9.38871 2.20346C9.27913 2.15058 9.16169 2.12392 9.04324 2.12503C8.92456 2.1246 8.80697 2.15165 8.69718 2.20464C8.58739 2.25763 8.48755 2.33553 8.40336 2.43388C8.31918 2.53224 8.2523 2.64912 8.20654 2.77786C8.16078 2.90661 8.13703 3.04468 8.13666 3.18421C8.13629 3.32374 8.1593 3.46199 8.20438 3.59107C8.24945 3.72014 8.31571 3.83752 8.39937 3.93649C8.48303 4.03546 8.58245 4.11409 8.69196 4.16788C8.80146 4.22168 8.91891 4.2496 9.03759 4.25003V4.25003Z" fill="#1D2E5B"/>
        <path d="M10.3805 6.37507H9.14463C9.12435 6.37508 9.10445 6.36867 9.08701 6.35652C9.06957 6.34437 9.05523 6.32692 9.04549 6.30601L8.14908 4.37459C8.08592 4.23105 7.9949 4.10702 7.88339 4.01253C7.77187 3.91804 7.643 3.85574 7.50721 3.83068C7.37141 3.80563 7.2325 3.81852 7.10173 3.8683C6.97096 3.91809 6.85199 4.00338 6.75447 4.11726L4.78145 6.45476C4.6157 6.65366 4.52161 6.92008 4.5188 7.19851C4.5188 7.77625 4.87465 7.98211 5.04128 8.09832C5.84619 8.64351 6.41302 9.04228 6.72397 9.26375C6.7405 9.27558 6.75417 9.2922 6.76366 9.31203C6.77316 9.33186 6.77816 9.35422 6.77819 9.37697V11.672C6.77819 11.9578 6.96516 12.2032 7.20832 12.2175C7.26938 12.221 7.33039 12.2098 7.38767 12.1848C7.44496 12.1597 7.49732 12.1212 7.5416 12.0717C7.58587 12.0222 7.62114 11.9626 7.64526 11.8965C7.66939 11.8305 7.68187 11.7594 7.68195 11.6876V8.83211C7.68199 8.74777 7.66495 8.66464 7.63225 8.58958C7.59954 8.51452 7.5521 8.4497 7.49386 8.40047L6.44889 7.51693C6.43577 7.5059 6.42481 7.49169 6.41676 7.47526C6.4087 7.45884 6.40373 7.44057 6.40218 7.4217C6.40063 7.40282 6.40253 7.38378 6.40776 7.36584C6.41299 7.34791 6.42143 7.33149 6.43251 7.31771L7.61869 5.83054C7.63085 5.81524 7.64592 5.80354 7.66266 5.79639C7.6794 5.78924 7.69734 5.78685 7.71502 5.78941C7.7327 5.79196 7.74962 5.7994 7.76439 5.81111C7.77916 5.82282 7.79136 5.83846 7.8 5.85677L8.41625 7.16431C8.45542 7.2472 8.51274 7.31625 8.58227 7.3643C8.6518 7.41235 8.731 7.43765 8.81165 7.43757H10.3932C10.4544 7.43766 10.515 7.42312 10.5713 7.39484C10.6276 7.36655 10.6784 7.32512 10.7207 7.27305C10.7629 7.22098 10.7958 7.15935 10.8172 7.09192C10.8385 7.02448 10.848 6.95264 10.8451 6.88076C10.8332 6.59488 10.6237 6.37507 10.3805 6.37507Z" fill="#1D2E5B"/>
      </symbol>
      <symbol id="icon-run" viewBox="0 0 14 17">
        <path d="M9.56131 4.24996C10.1663 4.24996 10.6568 3.6157 10.6568 2.83329C10.6568 2.05089 10.1663 1.41663 9.56131 1.41663C8.95631 1.41663 8.46585 2.05089 8.46585 2.83329C8.46585 3.6157 8.95631 4.24996 9.56131 4.24996Z" fill="#1D2E5B"/>
        <path d="M8.89155 7.76969C9.01729 8.01199 9.19764 8.19839 9.40812 8.30356C9.6186 8.40874 9.84901 8.42761 10.0681 8.3576L11.8843 7.77039L11.6198 6.39623L9.80352 6.98344L9.0482 5.51931C8.88682 5.20663 8.63637 4.98917 8.35148 4.91439L6.24491 4.36898C6.00924 4.30781 5.76456 4.34869 5.54865 4.48529C5.33274 4.62189 5.15761 4.84662 5.05031 5.12477L4.14217 7.4736L5.12206 8.10756L6.0302 5.75802L7.10759 6.0371L4.32183 12.0416H1.89319V13.4583H4.32183C4.70414 13.4583 5.064 13.1948 5.26119 12.7705L6.31173 10.5067L9.14295 11.2391L10.1376 15.0988L11.1761 14.6504L10.182 10.7914C10.1206 10.5545 10.0121 10.3427 9.86728 10.1773C9.72246 10.0119 9.5465 9.89879 9.35712 9.84935L7.69256 9.41939L8.66314 7.32698L8.89155 7.76969Z" fill="#1D2E5B"/>
      </symbol>
      <symbol id="icon-heart" viewBox="0 0 20 20">
        <g>
        <path clip-rule="evenodd" d="M10 8.12436L11.1175 5.77557C11.395 5.19396 11.8762 4.35764 12.5575 3.68149C13.2275 3.01585 14.03 2.5629 15 2.5629C17.095 2.5629 18.75 4.30381 18.75 6.39658C18.75 7.9865 18.0575 9.10903 16.415 10.8211C15.9937 11.2596 15.5138 11.7335 14.9825 12.2561C13.5975 13.6215 11.875 15.3204 10 17.5917C8.125 15.3204 6.4025 13.6215 5.0175 12.2561C4.48625 11.7335 4.005 11.2583 3.585 10.8211C1.9425 9.10903 1.25 7.9865 1.25 6.39658C1.25 4.30381 2.905 2.5629 5 2.5629C5.97 2.5629 6.7725 3.01585 7.4425 3.68149C8.12375 4.35764 8.605 5.19396 8.8825 5.77557L10 8.12436ZM10.49 19.0109C10.4298 19.0858 10.3548 19.146 10.2701 19.1873C10.1855 19.2286 10.0933 19.25 10 19.25C9.90668 19.25 9.81449 19.2286 9.72986 19.1873C9.64523 19.146 9.57019 19.0858 9.51 19.0109C7.50875 16.5138 5.6975 14.7283 4.20625 13.2591C1.625 10.7134 0 9.11297 0 6.39658C0 3.55414 2.2375 1.25 5 1.25C7 1.25 8.39875 2.62855 9.255 3.88631C9.58 4.36552 9.8275 4.82635 10 5.18871C10.2162 4.73519 10.4653 4.29978 10.745 3.88631C11.6012 2.62723 13 1.25 15 1.25C17.7625 1.25 20 3.55414 20 6.39658C20 9.11297 18.375 10.7134 15.7938 13.2591C14.3025 14.7296 12.4913 16.5151 10.49 19.0096V19.0109Z"/>
        </g>
      </symbol>
    </svg>
